PathFileType	4	(X/Y/Z)	/Users/itak/Documents/Research/Walk-IL/dataset/trc/00488_00167.trc
DataRate	CameraRate	NumFrames	NumMarkers	Units	OrigDataRate	OrigDataStartFrame	OrigNumFrames
100.000000	100.000000	4	53	mm	100.000000	409	546
Frame#	Time	RPSI			LPSI			L3			STRN			T10			C7			CLAV			RBAK			LBAK			LSHO			LUPA			LAEL			LAOL			LWTS			LWPS			LFRA			LIFD			LHPS			LHTS			RSHO			RUPA			RAEL			RAOL			RWTS			RWPS			RFRA			RIFD			RHTS			RHPS			RBHD			LFHD			RFHD			LBHD			LHIP			RHIP			RASI			LASI			LKNE			LTHI			LANK			LTIP			LTOE			LMT1			LMT5			LHEE			RKNE			RTHI			RANK			RTIP			RTOE			RMT1			RMT5			RHEE			
		X1	Y1	Z1	X2	Y2	Z2	X3	Y3	Z3	X4	Y4	Z4	X5	Y5	Z5	X6	Y6	Z6	X7	Y7	Z7	X8	Y8	Z8	X9	Y9	Z9	X10	Y10	Z10	X11	Y11	Z11	X12	Y12	Z12	X13	Y13	Z13	X14	Y14	Z14	X15	Y15	Z15	X16	Y16	Z16	X17	Y17	Z17	X18	Y18	Z18	X19	Y19	Z19	X20	Y20	Z20	X21	Y21	Z21	X22	Y22	Z22	X23	Y23	Z23	X24	Y24	Z24	X25	Y25	Z25	X26	Y26	Z26	X27	Y27	Z27	X28	Y28	Z28	X29	Y29	Z29	X30	Y30	Z30	X31	Y31	Z31	X32	Y32	Z32	X33	Y33	Z33	X34	Y34	Z34	X35	Y35	Z35	X36	Y36	Z36	X37	Y37	Z37	X38	Y38	Z38	X39	Y39	Z39	X40	Y40	Z40	X41	Y41	Z41	X42	Y42	Z42	X43	Y43	Z43	X44	Y44	Z44	X45	Y45	Z45	X46	Y46	Z46	X47	Y47	Z47	X48	Y48	Z48	X49	Y49	Z49	X50	Y50	Z50	X51	Y51	Z51	X52	Y52	Z52	X53	Y53	Z53	

410	4.09	389.1963500976562	966.2061157226562	19.21201705932617	245.7358093261719	967.1063842773438	8.671450614929199	343.8929138183594	1067.226440429688	-10.0313606262207	343.6985778808594	1244.699096679688	-291.493408203125	349.5335388183594	1191.47802734375	0.471259593963623	365.7060852050781	1455.501098632812	-83.11431884765625	342.1532897949219	1359.364135742188	-261.6658935546875	463.167236328125	1336.704833984375	-19.48913383483887	266.6265869140625	1412.201293945312	-42.15545272827148	184.9850463867188	1428.508666992188	-143.5428619384766	84.13308715820312	1314.351440429688	-126.0803833007812	43.76958084106445	1102.97265625	-148.5602416992188	105.7978210449219	1077.00244140625	-69.22818756103516	119.3556518554688	944.2330322265625	-281.2746887207031	60.86291122436523	908.9949340820312	-252.2058410644531	44.88612365722656	1025.150146484375	-194.5253753662109	137.3514709472656	794.1757202148438	-341.3297424316406	72.79598999023438	839.9996337890625	-287.3301086425781	124.0505676269531	870.025634765625	-327.9998779296875	518.3872680664062	1419.55029296875	-157.2660522460938	597.5355834960938	1365.2333984375	-143.7223663330078	692.9188232421875	1094.083618164062	-168.6451721191406	661.3421630859375	1059.388305664062	-119.3633422851562	648.1920166015625	933.1294555664062	-328.0175170898438	711.5842895507812	900.6199340820312	-276.7725524902344	705.5269165039062	1040.060424804688	-191.2904205322266	667.015625	792.2222290039062	-391.8837890625	667.2362060546875	853.1401977539062	-382.320068359375	713.8303833007812	826.9378662109375	-326.4009399414062	441.8069152832031	1646.539306640625	-224.4259033203125	259.9688110351562	1632.250244140625	-320.9526062011719	386.9283447265625	1633.97265625	-350.3247680664062	272.9555053710938	1652.580322265625	-169.2394866943359	132.7454376220703	868.3507080078125	-139.7206726074219	529.6288452148438	851.6731567382812	-84.91310119628906	474.9548950195312	892.7948608398438	-194.1892395019531	223.6809692382812	902.9136962890625	-226.7767486572266	150.9092407226562	454.2738952636719	-228.8933715820312	137.7891082763672	609.15185546875	-226.0452117919922	118.3697891235352	46.46559524536133	-139.5661773681641	125.7360382080078	304.7151794433594	-215.4427337646484	204.5408935546875	51.52413940429688	-364.9065856933594	230.0045013427734	50.09060668945312	-286.2261352539062	119.5150680541992	54.73424530029297	-291.4282836914062	180.646728515625	48.2158088684082	-92.03815460205078	489.7049255371094	462.849853515625	-143.6467742919922	549.40234375	728.3953247070312	-138.8149719238281	473.3003234863281	38.7359619140625	-86.57514953613281	494.2395629882812	318.5964050292969	-147.0760345458984	436.4974975585938	41.70028305053711	-308.2019653320312	401.3961791992188	49.36556625366211	-245.3645477294922	508.2332458496094	41.6431884765625	-216.5888519287109	421.5621948242188	33.7611198425293	-26.0711727142334	
411	4.1	387.2926025390625	965.9728393554688	17.09441375732422	243.9035491943359	966.5487670898438	5.562699317932129	341.6618041992188	1066.55615234375	-12.30204582214355	343.7821960449219	1244.42724609375	-293.4739685058594	346.9039611816406	1190.783203125	-1.545549392700195	363.6420288085938	1454.984619140625	-84.46482849121094	341.837890625	1359.041259765625	-263.4414672851562	460.5968933105469	1336.086791992188	-20.22519683837891	264.2033996582031	1411.451049804688	-44.50814056396484	183.4510192871094	1427.807861328125	-146.6856842041016	82.56891632080078	1313.392578125	-130.4623260498047	42.76349258422852	1101.536865234375	-153.1111755371094	104.2254333496094	1076.414184570312	-73.21001434326172	117.7515563964844	939.4305419921875	-282.3471984863281	58.83964538574219	905.357421875	-252.6040802001953	43.52535247802734	1022.764770507812	-197.6101837158203	134.7231292724609	787.8588256835938	-338.93896484375	70.54554748535156	835.4365234375	-286.2424926757812	122.1632995605469	864.4108276367188	-327.5249938964844	517.0675048828125	1419.308715820312	-157.2612915039062	596.1088256835938	1364.886352539062	-143.0835571289062	691.26904296875	1093.611206054688	-168.3839416503906	659.4611206054688	1058.674682617188	-119.4072113037109	646.1500854492188	934.37255859375	-329.3277587890625	709.2813720703125	900.9487915039062	-278.30078125	703.73828125	1039.707885742188	-191.4485778808594	663.8880004882812	793.8202514648438	-394.3018493652344	664.4848022460938	854.6276245117188	-384.2308044433594	710.9968872070312	827.6455078125	-328.5609130859375	441.0761413574219	1646.315673828125	-224.4794158935547	259.6961669921875	1632.862182617188	-321.9812622070312	386.7522277832031	1634.702026367188	-350.7078552246094	272.0640869140625	1651.992431640625	-170.2028503417969	132.4032592773438	867.1912231445312	-143.1232299804688	528.667236328125	851.7434692382812	-86.11346435546875	474.853759765625	892.6825561523438	-195.7852020263672	223.4194641113281	901.8973999023438	-230.0125579833984	151.4514617919922	452.7495727539062	-228.2166290283203	138.4919891357422	607.313720703125	-226.5075988769531	117.7721710205078	45.36318588256836	-141.948974609375	126.0524673461914	303.6157836914062	-216.2618255615234	206.0978851318359	48.15201950073242	-366.8213500976562	230.9172973632812	47.57851791381836	-287.75634765625	120.2506866455078	52.54788970947266	-294.1553039550781	179.5861053466797	47.38124084472656	-93.85317230224609	489.56689453125	462.7655334472656	-144.9898529052734	549.236328125	728.2432861328125	-140.2400817871094	473.2724914550781	38.74456024169922	-86.55047607421875	494.1993713378906	318.4563903808594	-148.0491180419922	436.4811706542969	41.68441772460938	-308.1882934570312	401.3984680175781	49.38014602661133	-245.3633422851562	508.2288513183594	41.64794158935547	-216.5596771240234	421.4887084960938	33.75269317626953	-26.04496383666992	
412	4.11	385.3304748535156	965.6945190429688	15.03487396240234	241.9992828369141	965.9033813476562	2.550973653793335	339.3305969238281	1065.837524414062	-14.47888088226318	343.7288513183594	1244.100463867188	-295.3724365234375	344.1123962402344	1190.05810546875	-3.50097393989563	361.4393310546875	1454.4443359375	-85.76565551757812	341.4179077148438	1358.673583984375	-265.1575622558594	457.8558044433594	1335.438232421875	-20.88773918151855	261.6078491210938	1410.68896484375	-46.8453369140625	181.8039703369141	1427.0673828125	-149.83984375	80.88179016113281	1312.368286132812	-134.9172668457031	41.67519378662109	1100.032470703125	-157.7378387451172	102.5100326538086	1075.790893554688	-77.21583557128906	116.0000076293945	934.4287719726562	-283.1867370605469	56.6325798034668	901.6124877929688	-252.7749328613281	42.07138061523438	1020.316711425781	-200.6868286132812	131.8818359375	781.3886108398438	-336.0712280273438	68.03121948242188	830.760498046875	-284.7916870117188	120.0597305297852	858.5186767578125	-326.6325988769531	515.6220703125	1418.9892578125	-157.1915588378906	594.529541015625	1364.448852539062	-142.3643493652344	689.4288940429688	1093.015014648438	-167.9285430908203	657.3909301757812	1057.893310546875	-119.2311172485352	643.9857788085938	935.334716796875	-330.2613220214844	706.8689575195312	901.0526123046875	-279.4026794433594	701.7833251953125	1039.215576171875	-191.3388519287109	660.6746215820312	795.10302734375	-396.2162475585938	661.6638793945312	855.8031616210938	-385.6664733886719	708.0755615234375	828.1062622070312	-330.2409362792969	440.2762451171875	1646.050170898438	-224.4495391845703	259.3926391601562	1633.462524414062	-322.9944763183594	386.5497131347656	1635.39453125	-351.0111389160156	271.0918273925781	1651.3955078125	-171.1548461914062	131.9650115966797	865.97802734375	-146.4555206298828	527.6632690429688	851.8430786132812	-87.29855346679688	474.6984252929688	892.5960693359375	-197.3559265136719	223.1435089111328	900.812744140625	-233.2012176513672	151.8668670654297	451.20556640625	-227.470703125	139.0363006591797	605.4890747070312	-226.9320526123047	117.4638137817383	44.52499008178711	-143.3372497558594	126.3923034667969	302.4706115722656	-216.6595001220703	207.3572998046875	45.25172424316406	-368.0029907226562	231.7378997802734	45.44358444213867	-288.5970764160156	120.8720779418945	50.75968551635742	-295.8790893554688	178.9215545654297	46.65718841552734	-94.80790710449219	489.4027709960938	462.6798400878906	-146.3541564941406	549.0164184570312	728.1171875	-141.6400451660156	473.2383728027344	38.76171493530273	-86.53239440917969	494.1257934570312	318.3245849609375	-149.0333862304688	436.4692077636719	41.67417526245117	-308.1708068847656	401.4043579101562	49.4000129699707	-245.3610229492188	508.2203674316406	41.65773010253906	-216.5321960449219	421.4188842773438	33.74991989135742	-26.02533531188965	
413	4.12	383.3457946777344	965.3885498046875	13.03522109985352	240.0603179931641	965.2106323242188	-0.3571159243583679	336.9381713867188	1065.104125976562	-16.56245422363281	343.5341186523438	1243.7490234375	-297.1836242675781	341.1863098144531	1189.337280273438	-5.397688388824463	359.1076965332031	1453.916259765625	-87.02703094482422	340.8927001953125	1358.295043945312	-266.8130493164062	454.9552307128906	1334.798950195312	-21.48089218139648	258.8477783203125	1409.95068359375	-49.17682647705078	180.0479736328125	1426.311889648438	-152.9982452392578	79.09420013427734	1311.296630859375	-139.4353790283203	40.52318572998047	1098.486938476562	-162.4406280517578	100.6722793579102	1075.15478515625	-81.24508666992188	114.10302734375	929.2830200195312	-283.7828674316406	54.26131820678711	897.8126831054688	-252.7344055175781	40.54039764404297	1017.840637207031	-203.751708984375	128.8227233886719	774.8488159179688	-332.7321166992188	65.25639343261719	826.0396118164062	-282.9811401367188	117.7304611206055	852.396728515625	-325.3067932128906	514.0614013671875	1418.624145507812	-157.0704040527344	592.8057861328125	1363.94775390625	-141.5806579589844	687.3922729492188	1092.312133789062	-167.2927551269531	655.1160888671875	1057.06494140625	-118.8522262573242	641.718017578125	936.01708984375	-330.8247680664062	704.3572998046875	900.9373779296875	-280.0669250488281	699.656494140625	1038.596069335938	-190.9689331054688	657.4131469726562	796.0549926757812	-397.6216735839844	658.803466796875	856.6602783203125	-386.6238708496094	705.0968627929688	828.3172607421875	-331.4237976074219	439.4030456542969	1645.776000976562	-224.3573303222656	259.0632934570312	1634.073120117188	-324.018310546875	386.318115234375	1636.0615234375	-351.2545471191406	270.0242614746094	1650.845092773438	-172.0929107666016	131.4374389648438	864.7779541015625	-149.7189025878906	526.6451416015625	851.9647216796875	-88.471435546875	474.4953918457031	892.5418090820312	-198.9073333740234	222.8455505371094	899.704345703125	-236.3242492675781	152.1427154541016	449.7141723632812	-226.6467895507812	139.3977203369141	603.7379760742188	-227.3081970214844	117.3984832763672	43.91482162475586	-143.9472045898438	126.7190017700195	301.3457641601562	-216.6681518554688	208.3027038574219	43.01058578491211	-368.6272277832031	232.4148559570312	43.77306747436523	-288.9289245605469	121.3530578613281	49.44594955444336	-296.7715454101562	178.6046600341797	45.97685241699219	-95.10115814208984	489.1927490234375	462.5968933105469	-147.7228393554688	548.7491455078125	728.02392578125	-143.0205535888672	473.1895141601562	38.79621505737305	-86.52708435058594	494.0007629394531	318.2154541015625	-150.0120239257812	436.4670715332031	41.67016983032227	-308.1493225097656	401.4062805175781	49.42226791381836	-245.3609313964844	508.2036743164062	41.67560958862305	-216.5081939697266	421.3507690429688	33.76216125488281	-26.01808738708496	
